<svg xmlns="http://www.w3.org/2000/svg" width="1060" height="700" viewBox="0 0 1060 700">
<rect width="100%" height="100%" fill="#ffffff"/>
<text x="86.0" y="42.0" font-family="Inter, Arial, sans-serif" font-size="24" font-weight="700" text-anchor="start" fill="#1f2933">Condition Win Rate by Scenario Type</text>
<text x="86.0" y="68.0" font-family="Inter, Arial, sans-serif" font-size="13" font-weight="400" text-anchor="start" fill="#1f2933">Cluster bootstrap 95% intervals by participant; each script appearance is one observation.</text>
<text transform="rotate(-90 22 344.0)" x="22.0" y="344.0" font-family="Inter, Arial, sans-serif" font-size="12" font-weight="400" text-anchor="middle" fill="#1f2933">Win rate</text>
<line x1="86" y1="582.0" x2="1018" y2="582.0" stroke="#e6e9ee"/>
<text x="76.0" y="586.0" font-family="Inter, Arial, sans-serif" font-size="11" font-weight="400" text-anchor="end" fill="#1f2933">0%</text>
<line x1="86" y1="486.8" x2="1018" y2="486.8" stroke="#e6e9ee"/>
<text x="76.0" y="490.8" font-family="Inter, Arial, sans-serif" font-size="11" font-weight="400" text-anchor="end" fill="#1f2933">20%</text>
<line x1="86" y1="391.6" x2="1018" y2="391.6" stroke="#e6e9ee"/>
<text x="76.0" y="395.6" font-family="Inter, Arial, sans-serif" font-size="11" font-weight="400" text-anchor="end" fill="#1f2933">40%</text>
<line x1="86" y1="296.4" x2="1018" y2="296.4" stroke="#e6e9ee"/>
<text x="76.0" y="300.4" font-family="Inter, Arial, sans-serif" font-size="11" font-weight="400" text-anchor="end" fill="#1f2933">60%</text>
<line x1="86" y1="201.2" x2="1018" y2="201.2" stroke="#e6e9ee"/>
<text x="76.0" y="205.2" font-family="Inter, Arial, sans-serif" font-size="11" font-weight="400" text-anchor="end" fill="#1f2933">80%</text>
<line x1="86" y1="106.0" x2="1018" y2="106.0" stroke="#e6e9ee"/>
<text x="76.0" y="110.0" font-family="Inter, Arial, sans-serif" font-size="11" font-weight="400" text-anchor="end" fill="#1f2933">100%</text>
<text x="179.2" y="612.0" font-family="Inter, Arial, sans-serif" font-size="13" font-weight="600" text-anchor="middle" fill="#1f2933">Baseline</text>
<rect x="141.2" y="262.4" width="34.0" height="319.6" rx="3" fill="#2f6f9f"/>
<text x="158.2" y="254.4" font-family="Inter, Arial, sans-serif" font-size="10" font-weight="400" text-anchor="middle" fill="#1f2933">67%</text>
<line x1="158.2" y1="207.0" x2="158.2" y2="323.0" stroke="#1f2933" stroke-width="1.5"/>
<line x1="153.2" y1="207.0" x2="163.2" y2="207.0" stroke="#1f2933" stroke-width="1.5"/>
<line x1="153.2" y1="323.0" x2="163.2" y2="323.0" stroke="#1f2933" stroke-width="1.5"/>
<rect x="179.2" y="278.5" width="34.0" height="303.5" rx="3" fill="#d76f30"/>
<text x="196.2" y="270.5" font-family="Inter, Arial, sans-serif" font-size="10" font-weight="400" text-anchor="middle" fill="#1f2933">64%</text>
<line x1="196.2" y1="223.4" x2="196.2" y2="331.9" stroke="#1f2933" stroke-width="1.5"/>
<line x1="191.2" y1="223.4" x2="201.2" y2="223.4" stroke="#1f2933" stroke-width="1.5"/>
<line x1="191.2" y1="331.9" x2="201.2" y2="331.9" stroke="#1f2933" stroke-width="1.5"/>
<text x="365.6" y="612.0" font-family="Inter, Arial, sans-serif" font-size="13" font-weight="600" text-anchor="middle" fill="#1f2933">Body</text>
<rect x="327.6" y="405.2" width="34.0" height="176.8" rx="3" fill="#2f6f9f"/>
<text x="344.6" y="397.2" font-family="Inter, Arial, sans-serif" font-size="10" font-weight="400" text-anchor="middle" fill="#1f2933">37%</text>
<line x1="344.6" y1="356.9" x2="344.6" y2="456.4" stroke="#1f2933" stroke-width="1.5"/>
<line x1="339.6" y1="356.9" x2="349.6" y2="356.9" stroke="#1f2933" stroke-width="1.5"/>
<line x1="339.6" y1="456.4" x2="349.6" y2="456.4" stroke="#1f2933" stroke-width="1.5"/>
<rect x="365.6" y="410.6" width="34.0" height="171.4" rx="3" fill="#d76f30"/>
<text x="382.6" y="402.6" font-family="Inter, Arial, sans-serif" font-size="10" font-weight="400" text-anchor="middle" fill="#1f2933">36%</text>
<line x1="382.6" y1="347.4" x2="382.6" y2="468.3" stroke="#1f2933" stroke-width="1.5"/>
<line x1="377.6" y1="347.4" x2="387.6" y2="347.4" stroke="#1f2933" stroke-width="1.5"/>
<line x1="377.6" y1="468.3" x2="387.6" y2="468.3" stroke="#1f2933" stroke-width="1.5"/>
<text x="552.0" y="612.0" font-family="Inter, Arial, sans-serif" font-size="13" font-weight="600" text-anchor="middle" fill="#1f2933">Mind</text>
<rect x="514.0" y="310.0" width="34.0" height="272.0" rx="3" fill="#2f6f9f"/>
<text x="531.0" y="302.0" font-family="Inter, Arial, sans-serif" font-size="10" font-weight="400" text-anchor="middle" fill="#1f2933">57%</text>
<line x1="531.0" y1="255.2" x2="531.0" y2="363.5" stroke="#1f2933" stroke-width="1.5"/>
<line x1="526.0" y1="255.2" x2="536.0" y2="255.2" stroke="#1f2933" stroke-width="1.5"/>
<line x1="526.0" y1="363.5" x2="536.0" y2="363.5" stroke="#1f2933" stroke-width="1.5"/>
<rect x="552.0" y="301.6" width="34.0" height="280.4" rx="3" fill="#d76f30"/>
<text x="569.0" y="293.6" font-family="Inter, Arial, sans-serif" font-size="10" font-weight="400" text-anchor="middle" fill="#1f2933">59%</text>
<line x1="569.0" y1="253.5" x2="569.0" y2="350.1" stroke="#1f2933" stroke-width="1.5"/>
<line x1="564.0" y1="253.5" x2="574.0" y2="253.5" stroke="#1f2933" stroke-width="1.5"/>
<line x1="564.0" y1="350.1" x2="574.0" y2="350.1" stroke="#1f2933" stroke-width="1.5"/>
<text x="738.4" y="612.0" font-family="Inter, Arial, sans-serif" font-size="13" font-weight="600" text-anchor="middle" fill="#1f2933">Soul</text>
<rect x="700.4" y="402.8" width="34.0" height="179.2" rx="3" fill="#2f6f9f"/>
<text x="717.4" y="394.8" font-family="Inter, Arial, sans-serif" font-size="10" font-weight="400" text-anchor="middle" fill="#1f2933">38%</text>
<line x1="717.4" y1="344.0" x2="717.4" y2="454.7" stroke="#1f2933" stroke-width="1.5"/>
<line x1="712.4" y1="344.0" x2="722.4" y2="344.0" stroke="#1f2933" stroke-width="1.5"/>
<line x1="712.4" y1="454.7" x2="722.4" y2="454.7" stroke="#1f2933" stroke-width="1.5"/>
<rect x="738.4" y="413.6" width="34.0" height="168.4" rx="3" fill="#d76f30"/>
<text x="755.4" y="405.6" font-family="Inter, Arial, sans-serif" font-size="10" font-weight="400" text-anchor="middle" fill="#1f2933">35%</text>
<line x1="755.4" y1="361.0" x2="755.4" y2="468.7" stroke="#1f2933" stroke-width="1.5"/>
<line x1="750.4" y1="361.0" x2="760.4" y2="361.0" stroke="#1f2933" stroke-width="1.5"/>
<line x1="750.4" y1="468.7" x2="760.4" y2="468.7" stroke="#1f2933" stroke-width="1.5"/>
<text x="924.8" y="612.0" font-family="Inter, Arial, sans-serif" font-size="13" font-weight="600" text-anchor="middle" fill="#1f2933">Full</text>
<rect x="886.8" y="327.2" width="34.0" height="254.8" rx="3" fill="#2f6f9f"/>
<text x="903.8" y="319.2" font-family="Inter, Arial, sans-serif" font-size="10" font-weight="400" text-anchor="middle" fill="#1f2933">54%</text>
<line x1="903.8" y1="274.0" x2="903.8" y2="380.1" stroke="#1f2933" stroke-width="1.5"/>
<line x1="898.8" y1="274.0" x2="908.8" y2="274.0" stroke="#1f2933" stroke-width="1.5"/>
<line x1="898.8" y1="380.1" x2="908.8" y2="380.1" stroke="#1f2933" stroke-width="1.5"/>
<rect x="924.8" y="317.6" width="34.0" height="264.4" rx="3" fill="#d76f30"/>
<text x="941.8" y="309.6" font-family="Inter, Arial, sans-serif" font-size="10" font-weight="400" text-anchor="middle" fill="#1f2933">56%</text>
<line x1="941.8" y1="264.7" x2="941.8" y2="369.7" stroke="#1f2933" stroke-width="1.5"/>
<line x1="936.8" y1="264.7" x2="946.8" y2="264.7" stroke="#1f2933" stroke-width="1.5"/>
<line x1="936.8" y1="369.7" x2="946.8" y2="369.7" stroke="#1f2933" stroke-width="1.5"/>
<rect x="86" y="646" width="14" height="14" rx="2" fill="#2f6f9f"/>
<text x="108.0" y="658.0" font-family="Inter, Arial, sans-serif" font-size="12" font-weight="400" text-anchor="start" fill="#1f2933">Daily</text>
<rect x="226" y="646" width="14" height="14" rx="2" fill="#d76f30"/>
<text x="248.0" y="658.0" font-family="Inter, Arial, sans-serif" font-size="12" font-weight="400" text-anchor="start" fill="#1f2933">Task</text>
</svg>