<svg xmlns="http://www.w3.org/2000/svg" width="1060" height="700" viewBox="0 0 1060 700">
<rect width="100%" height="100%" fill="#ffffff"/>
<text x="86.0" y="42.0" font-family="Inter, Arial, sans-serif" font-size="24" font-weight="700" text-anchor="start" fill="#1f2933">Average Rating by Condition and Scenario Type</text>
<text x="86.0" y="68.0" font-family="Inter, Arial, sans-serif" font-size="13" font-weight="400" text-anchor="start" fill="#1f2933">Cluster bootstrap 95% intervals by participant.</text>
<text transform="rotate(-90 22 344.0)" x="22.0" y="344.0" font-family="Inter, Arial, sans-serif" font-size="12" font-weight="400" text-anchor="middle" fill="#1f2933">Average rating</text>
<line x1="86" y1="582.0" x2="1018" y2="582.0" stroke="#e6e9ee"/>
<text x="76.0" y="586.0" font-family="Inter, Arial, sans-serif" font-size="11" font-weight="400" text-anchor="end" fill="#1f2933">0.00</text>
<line x1="86" y1="486.8" x2="1018" y2="486.8" stroke="#e6e9ee"/>
<text x="76.0" y="490.8" font-family="Inter, Arial, sans-serif" font-size="11" font-weight="400" text-anchor="end" fill="#1f2933">1.60</text>
<line x1="86" y1="391.6" x2="1018" y2="391.6" stroke="#e6e9ee"/>
<text x="76.0" y="395.6" font-family="Inter, Arial, sans-serif" font-size="11" font-weight="400" text-anchor="end" fill="#1f2933">3.20</text>
<line x1="86" y1="296.4" x2="1018" y2="296.4" stroke="#e6e9ee"/>
<text x="76.0" y="300.4" font-family="Inter, Arial, sans-serif" font-size="11" font-weight="400" text-anchor="end" fill="#1f2933">4.80</text>
<line x1="86" y1="201.2" x2="1018" y2="201.2" stroke="#e6e9ee"/>
<text x="76.0" y="205.2" font-family="Inter, Arial, sans-serif" font-size="11" font-weight="400" text-anchor="end" fill="#1f2933">6.40</text>
<line x1="86" y1="106.0" x2="1018" y2="106.0" stroke="#e6e9ee"/>
<text x="76.0" y="110.0" font-family="Inter, Arial, sans-serif" font-size="11" font-weight="400" text-anchor="end" fill="#1f2933">8.00</text>
<text x="179.2" y="612.0" font-family="Inter, Arial, sans-serif" font-size="13" font-weight="600" text-anchor="middle" fill="#1f2933">Baseline</text>
<rect x="141.2" y="129.8" width="34.0" height="452.2" rx="3" fill="#2f6f9f"/>
<text x="158.2" y="122.0" font-family="Inter, Arial, sans-serif" font-size="10" font-weight="400" text-anchor="middle" fill="#1f2933">7.60</text>
<line x1="158.2" y1="106.0" x2="158.2" y2="163.8" stroke="#1f2933" stroke-width="1.5"/>
<line x1="153.2" y1="106.0" x2="163.2" y2="106.0" stroke="#1f2933" stroke-width="1.5"/>
<line x1="153.2" y1="163.8" x2="163.2" y2="163.8" stroke="#1f2933" stroke-width="1.5"/>
<rect x="179.2" y="138.8" width="34.0" height="443.2" rx="3" fill="#d76f30"/>
<text x="196.2" y="130.8" font-family="Inter, Arial, sans-serif" font-size="10" font-weight="400" text-anchor="middle" fill="#1f2933">7.45</text>
<line x1="196.2" y1="107.7" x2="196.2" y2="168.1" stroke="#1f2933" stroke-width="1.5"/>
<line x1="191.2" y1="107.7" x2="201.2" y2="107.7" stroke="#1f2933" stroke-width="1.5"/>
<line x1="191.2" y1="168.1" x2="201.2" y2="168.1" stroke="#1f2933" stroke-width="1.5"/>
<text x="365.6" y="612.0" font-family="Inter, Arial, sans-serif" font-size="13" font-weight="600" text-anchor="middle" fill="#1f2933">Body</text>
<rect x="327.6" y="210.6" width="34.0" height="371.4" rx="3" fill="#2f6f9f"/>
<text x="344.6" y="202.6" font-family="Inter, Arial, sans-serif" font-size="10" font-weight="400" text-anchor="middle" fill="#1f2933">6.24</text>
<line x1="344.6" y1="179.2" x2="344.6" y2="243.0" stroke="#1f2933" stroke-width="1.5"/>
<line x1="339.6" y1="179.2" x2="349.6" y2="179.2" stroke="#1f2933" stroke-width="1.5"/>
<line x1="339.6" y1="243.0" x2="349.6" y2="243.0" stroke="#1f2933" stroke-width="1.5"/>
<rect x="365.6" y="188.5" width="34.0" height="393.5" rx="3" fill="#d76f30"/>
<text x="382.6" y="180.5" font-family="Inter, Arial, sans-serif" font-size="10" font-weight="400" text-anchor="middle" fill="#1f2933">6.61</text>
<line x1="382.6" y1="158.6" x2="382.6" y2="218.7" stroke="#1f2933" stroke-width="1.5"/>
<line x1="377.6" y1="158.6" x2="387.6" y2="158.6" stroke="#1f2933" stroke-width="1.5"/>
<line x1="377.6" y1="218.7" x2="387.6" y2="218.7" stroke="#1f2933" stroke-width="1.5"/>
<text x="552.0" y="612.0" font-family="Inter, Arial, sans-serif" font-size="13" font-weight="600" text-anchor="middle" fill="#1f2933">Mind</text>
<rect x="514.0" y="149.4" width="34.0" height="432.6" rx="3" fill="#2f6f9f"/>
<text x="531.0" y="141.4" font-family="Inter, Arial, sans-serif" font-size="10" font-weight="400" text-anchor="middle" fill="#1f2933">7.27</text>
<line x1="531.0" y1="124.9" x2="531.0" y2="175.1" stroke="#1f2933" stroke-width="1.5"/>
<line x1="526.0" y1="124.9" x2="536.0" y2="124.9" stroke="#1f2933" stroke-width="1.5"/>
<line x1="526.0" y1="175.1" x2="536.0" y2="175.1" stroke="#1f2933" stroke-width="1.5"/>
<rect x="552.0" y="140.2" width="34.0" height="441.8" rx="3" fill="#d76f30"/>
<text x="569.0" y="132.2" font-family="Inter, Arial, sans-serif" font-size="10" font-weight="400" text-anchor="middle" fill="#1f2933">7.42</text>
<line x1="569.0" y1="106.0" x2="569.0" y2="171.5" stroke="#1f2933" stroke-width="1.5"/>
<line x1="564.0" y1="106.0" x2="574.0" y2="106.0" stroke="#1f2933" stroke-width="1.5"/>
<line x1="564.0" y1="171.5" x2="574.0" y2="171.5" stroke="#1f2933" stroke-width="1.5"/>
<text x="738.4" y="612.0" font-family="Inter, Arial, sans-serif" font-size="13" font-weight="600" text-anchor="middle" fill="#1f2933">Soul</text>
<rect x="700.4" y="208.2" width="34.0" height="373.8" rx="3" fill="#2f6f9f"/>
<text x="717.4" y="200.2" font-family="Inter, Arial, sans-serif" font-size="10" font-weight="400" text-anchor="middle" fill="#1f2933">6.28</text>
<line x1="717.4" y1="178.2" x2="717.4" y2="240.8" stroke="#1f2933" stroke-width="1.5"/>
<line x1="712.4" y1="178.2" x2="722.4" y2="178.2" stroke="#1f2933" stroke-width="1.5"/>
<line x1="712.4" y1="240.8" x2="722.4" y2="240.8" stroke="#1f2933" stroke-width="1.5"/>
<rect x="738.4" y="207.6" width="34.0" height="374.4" rx="3" fill="#d76f30"/>
<text x="755.4" y="199.6" font-family="Inter, Arial, sans-serif" font-size="10" font-weight="400" text-anchor="middle" fill="#1f2933">6.29</text>
<line x1="755.4" y1="175.6" x2="755.4" y2="242.6" stroke="#1f2933" stroke-width="1.5"/>
<line x1="750.4" y1="175.6" x2="760.4" y2="175.6" stroke="#1f2933" stroke-width="1.5"/>
<line x1="750.4" y1="242.6" x2="760.4" y2="242.6" stroke="#1f2933" stroke-width="1.5"/>
<text x="924.8" y="612.0" font-family="Inter, Arial, sans-serif" font-size="13" font-weight="600" text-anchor="middle" fill="#1f2933">Full</text>
<rect x="886.8" y="183.1" width="34.0" height="398.9" rx="3" fill="#2f6f9f"/>
<text x="903.8" y="175.1" font-family="Inter, Arial, sans-serif" font-size="10" font-weight="400" text-anchor="middle" fill="#1f2933">6.70</text>
<line x1="903.8" y1="149.7" x2="903.8" y2="217.8" stroke="#1f2933" stroke-width="1.5"/>
<line x1="898.8" y1="149.7" x2="908.8" y2="149.7" stroke="#1f2933" stroke-width="1.5"/>
<line x1="898.8" y1="217.8" x2="908.8" y2="217.8" stroke="#1f2933" stroke-width="1.5"/>
<rect x="924.8" y="168.8" width="34.0" height="413.2" rx="3" fill="#d76f30"/>
<text x="941.8" y="160.8" font-family="Inter, Arial, sans-serif" font-size="10" font-weight="400" text-anchor="middle" fill="#1f2933">6.94</text>
<line x1="941.8" y1="139.2" x2="941.8" y2="197.5" stroke="#1f2933" stroke-width="1.5"/>
<line x1="936.8" y1="139.2" x2="946.8" y2="139.2" stroke="#1f2933" stroke-width="1.5"/>
<line x1="936.8" y1="197.5" x2="946.8" y2="197.5" stroke="#1f2933" stroke-width="1.5"/>
<rect x="86" y="646" width="14" height="14" rx="2" fill="#2f6f9f"/>
<text x="108.0" y="658.0" font-family="Inter, Arial, sans-serif" font-size="12" font-weight="400" text-anchor="start" fill="#1f2933">Daily</text>
<rect x="226" y="646" width="14" height="14" rx="2" fill="#d76f30"/>
<text x="248.0" y="658.0" font-family="Inter, Arial, sans-serif" font-size="12" font-weight="400" text-anchor="start" fill="#1f2933">Task</text>
</svg>