<svg xmlns="http://www.w3.org/2000/svg" width="1060" height="700" viewBox="0 0 1060 700">
<rect width="100%" height="100%" fill="#ffffff"/>
<text x="86.0" y="42.0" font-family="Inter, Arial, sans-serif" font-size="24" font-weight="700" text-anchor="start" fill="#1f2933">Direct Win Rate vs Baseline</text>
<text x="86.0" y="68.0" font-family="Inter, Arial, sans-serif" font-size="13" font-weight="400" text-anchor="start" fill="#1f2933">Only trials where a non-baseline condition was paired directly against baseline.</text>
<text transform="rotate(-90 22 344.0)" x="22.0" y="344.0" font-family="Inter, Arial, sans-serif" font-size="12" font-weight="400" text-anchor="middle" fill="#1f2933">Win rate vs baseline</text>
<line x1="86" y1="582.0" x2="1018" y2="582.0" stroke="#e6e9ee"/>
<text x="76.0" y="586.0" font-family="Inter, Arial, sans-serif" font-size="11" font-weight="400" text-anchor="end" fill="#1f2933">0%</text>
<line x1="86" y1="486.8" x2="1018" y2="486.8" stroke="#e6e9ee"/>
<text x="76.0" y="490.8" font-family="Inter, Arial, sans-serif" font-size="11" font-weight="400" text-anchor="end" fill="#1f2933">20%</text>
<line x1="86" y1="391.6" x2="1018" y2="391.6" stroke="#e6e9ee"/>
<text x="76.0" y="395.6" font-family="Inter, Arial, sans-serif" font-size="11" font-weight="400" text-anchor="end" fill="#1f2933">40%</text>
<line x1="86" y1="296.4" x2="1018" y2="296.4" stroke="#e6e9ee"/>
<text x="76.0" y="300.4" font-family="Inter, Arial, sans-serif" font-size="11" font-weight="400" text-anchor="end" fill="#1f2933">60%</text>
<line x1="86" y1="201.2" x2="1018" y2="201.2" stroke="#e6e9ee"/>
<text x="76.0" y="205.2" font-family="Inter, Arial, sans-serif" font-size="11" font-weight="400" text-anchor="end" fill="#1f2933">80%</text>
<line x1="86" y1="106.0" x2="1018" y2="106.0" stroke="#e6e9ee"/>
<text x="76.0" y="110.0" font-family="Inter, Arial, sans-serif" font-size="11" font-weight="400" text-anchor="end" fill="#1f2933">100%</text>
<text x="202.5" y="612.0" font-family="Inter, Arial, sans-serif" font-size="13" font-weight="600" text-anchor="middle" fill="#1f2933">Body</text>
<rect x="164.5" y="452.2" width="34.0" height="129.8" rx="3" fill="#2f6f9f"/>
<text x="181.5" y="444.2" font-family="Inter, Arial, sans-serif" font-size="10" font-weight="400" text-anchor="middle" fill="#1f2933">27%</text>
<line x1="181.5" y1="354.3" x2="181.5" y2="534.4" stroke="#1f2933" stroke-width="1.5"/>
<line x1="176.5" y1="354.3" x2="186.5" y2="354.3" stroke="#1f2933" stroke-width="1.5"/>
<line x1="176.5" y1="534.4" x2="186.5" y2="534.4" stroke="#1f2933" stroke-width="1.5"/>
<rect x="202.5" y="423.3" width="34.0" height="158.7" rx="3" fill="#d76f30"/>
<text x="219.5" y="415.3" font-family="Inter, Arial, sans-serif" font-size="10" font-weight="400" text-anchor="middle" fill="#1f2933">33%</text>
<line x1="219.5" y1="302.0" x2="219.5" y2="534.4" stroke="#1f2933" stroke-width="1.5"/>
<line x1="214.5" y1="302.0" x2="224.5" y2="302.0" stroke="#1f2933" stroke-width="1.5"/>
<line x1="214.5" y1="534.4" x2="224.5" y2="534.4" stroke="#1f2933" stroke-width="1.5"/>
<text x="435.5" y="612.0" font-family="Inter, Arial, sans-serif" font-size="13" font-weight="600" text-anchor="middle" fill="#1f2933">Mind</text>
<rect x="397.5" y="378.0" width="34.0" height="204.0" rx="3" fill="#2f6f9f"/>
<text x="414.5" y="370.0" font-family="Inter, Arial, sans-serif" font-size="10" font-weight="400" text-anchor="middle" fill="#1f2933">43%</text>
<line x1="414.5" y1="252.4" x2="414.5" y2="502.7" stroke="#1f2933" stroke-width="1.5"/>
<line x1="409.5" y1="252.4" x2="419.5" y2="252.4" stroke="#1f2933" stroke-width="1.5"/>
<line x1="409.5" y1="502.7" x2="419.5" y2="502.7" stroke="#1f2933" stroke-width="1.5"/>
<rect x="435.5" y="396.9" width="34.0" height="185.1" rx="3" fill="#d76f30"/>
<text x="452.5" y="388.9" font-family="Inter, Arial, sans-serif" font-size="10" font-weight="400" text-anchor="middle" fill="#1f2933">39%</text>
<line x1="452.5" y1="284.4" x2="452.5" y2="502.7" stroke="#1f2933" stroke-width="1.5"/>
<line x1="447.5" y1="284.4" x2="457.5" y2="284.4" stroke="#1f2933" stroke-width="1.5"/>
<line x1="447.5" y1="502.7" x2="457.5" y2="502.7" stroke="#1f2933" stroke-width="1.5"/>
<text x="668.5" y="612.0" font-family="Inter, Arial, sans-serif" font-size="13" font-weight="600" text-anchor="middle" fill="#1f2933">Soul</text>
<rect x="630.5" y="373.8" width="34.0" height="208.2" rx="3" fill="#2f6f9f"/>
<text x="647.5" y="365.8" font-family="Inter, Arial, sans-serif" font-size="10" font-weight="400" text-anchor="middle" fill="#1f2933">44%</text>
<line x1="647.5" y1="245.9" x2="647.5" y2="495.5" stroke="#1f2933" stroke-width="1.5"/>
<line x1="642.5" y1="245.9" x2="652.5" y2="245.9" stroke="#1f2933" stroke-width="1.5"/>
<line x1="642.5" y1="495.5" x2="652.5" y2="495.5" stroke="#1f2933" stroke-width="1.5"/>
<rect x="668.5" y="416.4" width="34.0" height="165.6" rx="3" fill="#d76f30"/>
<text x="685.5" y="408.4" font-family="Inter, Arial, sans-serif" font-size="10" font-weight="400" text-anchor="middle" fill="#1f2933">35%</text>
<line x1="685.5" y1="314.2" x2="685.5" y2="506.8" stroke="#1f2933" stroke-width="1.5"/>
<line x1="680.5" y1="314.2" x2="690.5" y2="314.2" stroke="#1f2933" stroke-width="1.5"/>
<line x1="680.5" y1="506.8" x2="690.5" y2="506.8" stroke="#1f2933" stroke-width="1.5"/>
<text x="901.5" y="612.0" font-family="Inter, Arial, sans-serif" font-size="13" font-weight="600" text-anchor="middle" fill="#1f2933">Full</text>
<rect x="863.5" y="476.2" width="34.0" height="105.8" rx="3" fill="#2f6f9f"/>
<text x="880.5" y="468.2" font-family="Inter, Arial, sans-serif" font-size="10" font-weight="400" text-anchor="middle" fill="#1f2933">22%</text>
<line x1="880.5" y1="373.8" x2="880.5" y2="559.3" stroke="#1f2933" stroke-width="1.5"/>
<line x1="875.5" y1="373.8" x2="885.5" y2="373.8" stroke="#1f2933" stroke-width="1.5"/>
<line x1="875.5" y1="559.3" x2="885.5" y2="559.3" stroke="#1f2933" stroke-width="1.5"/>
<rect x="901.5" y="398.9" width="34.0" height="183.1" rx="3" fill="#d76f30"/>
<text x="918.5" y="390.9" font-family="Inter, Arial, sans-serif" font-size="10" font-weight="400" text-anchor="middle" fill="#1f2933">38%</text>
<line x1="918.5" y1="264.7" x2="918.5" y2="522.5" stroke="#1f2933" stroke-width="1.5"/>
<line x1="913.5" y1="264.7" x2="923.5" y2="264.7" stroke="#1f2933" stroke-width="1.5"/>
<line x1="913.5" y1="522.5" x2="923.5" y2="522.5" stroke="#1f2933" stroke-width="1.5"/>
<rect x="86" y="646" width="14" height="14" rx="2" fill="#2f6f9f"/>
<text x="108.0" y="658.0" font-family="Inter, Arial, sans-serif" font-size="12" font-weight="400" text-anchor="start" fill="#1f2933">Daily</text>
<rect x="226" y="646" width="14" height="14" rx="2" fill="#d76f30"/>
<text x="248.0" y="658.0" font-family="Inter, Arial, sans-serif" font-size="12" font-weight="400" text-anchor="start" fill="#1f2933">Task</text>
</svg>