<svg xmlns="http://www.w3.org/2000/svg" width="1280" height="760" viewBox="0 0 1280 760">
<rect width="100%" height="100%" fill="#ffffff"/>
<text x="42.0" y="42.0" font-family="Inter, Arial, sans-serif" font-size="26" font-weight="700" text-anchor="start" fill="#1f2933">Preferred Script Length</text>
<text x="42.0" y="70.0" font-family="Inter, Arial, sans-serif" font-size="13" font-weight="400" text-anchor="start" fill="#1f2933">Violin-style density from selected duration ranges; dots show unique bands. Attention-filtered N=87.</text>
<line x1="94.0" y1="116" x2="94.0" y2="662" stroke="#e6e9ee"/>
<text x="94.0" y="702.0" font-family="Inter, Arial, sans-serif" font-size="11" font-weight="400" text-anchor="middle" fill="#1f2933">0</text>
<line x1="314.0" y1="116" x2="314.0" y2="662" stroke="#e6e9ee"/>
<text x="314.0" y="702.0" font-family="Inter, Arial, sans-serif" font-size="11" font-weight="400" text-anchor="middle" fill="#1f2933">3</text>
<line x1="534.0" y1="116" x2="534.0" y2="662" stroke="#e6e9ee"/>
<text x="534.0" y="702.0" font-family="Inter, Arial, sans-serif" font-size="11" font-weight="400" text-anchor="middle" fill="#1f2933">6</text>
<line x1="754.0" y1="116" x2="754.0" y2="662" stroke="#e6e9ee"/>
<text x="754.0" y="702.0" font-family="Inter, Arial, sans-serif" font-size="11" font-weight="400" text-anchor="middle" fill="#1f2933">9</text>
<line x1="974.0" y1="116" x2="974.0" y2="662" stroke="#e6e9ee"/>
<text x="974.0" y="702.0" font-family="Inter, Arial, sans-serif" font-size="11" font-weight="400" text-anchor="middle" fill="#1f2933">12</text>
<line x1="1194.0" y1="116" x2="1194.0" y2="662" stroke="#e6e9ee"/>
<text x="1194.0" y="702.0" font-family="Inter, Arial, sans-serif" font-size="11" font-weight="400" text-anchor="middle" fill="#1f2933">15</text>
<line x1="94" y1="300" x2="1194" y2="300" stroke="#93a8b8" stroke-width="1"/>
<polygon points="94.0,216.4 101.3,209.8 108.7,203.4 116.0,197.3 123.3,191.4 130.7,186.0 138.0,180.9 145.3,176.3 152.7,172.1 160.0,168.4 167.3,165.1 174.7,162.2 182.0,159.7 189.3,157.5 196.7,155.8 204.0,154.3 211.3,153.1 218.7,152.1 226.0,151.4 233.3,150.9 240.7,150.5 248.0,150.2 255.3,150.1 262.7,150.0 270.0,150.0 277.3,150.1 284.7,150.2 292.0,150.4 299.3,150.7 306.7,151.0 314.0,151.3 321.3,151.7 328.7,152.1 336.0,152.6 343.3,153.1 350.7,153.7 358.0,154.4 365.3,155.2 372.7,156.1 380.0,157.1 387.3,158.3 394.7,159.7 402.0,161.3 409.3,163.1 416.7,165.2 424.0,167.5 431.3,170.2 438.7,173.1 446.0,176.4 453.3,179.9 460.7,183.7 468.0,187.7 475.3,192.0 482.7,196.4 490.0,200.8 497.3,205.4 504.7,209.9 512.0,214.3 519.3,218.6 526.7,222.8 534.0,226.8 541.3,230.6 548.7,234.1 556.0,237.4 563.3,240.5 570.7,243.4 578.0,246.0 585.3,248.4 592.7,250.7 600.0,252.8 607.3,254.7 614.7,256.5 622.0,258.2 629.3,259.8 636.7,261.3 644.0,262.8 651.3,264.2 658.7,265.5 666.0,266.7 673.3,267.9 680.7,269.0 688.0,270.1 695.3,271.1 702.7,272.0 710.0,272.9 717.3,273.7 724.7,274.4 732.0,275.1 739.3,275.7 746.7,276.3 754.0,276.8 761.3,277.2 768.7,277.6 776.0,278.0 783.3,278.3 790.7,278.7 798.0,279.0 805.3,279.3 812.7,279.7 820.0,280.0 827.3,280.4 834.7,280.8 842.0,281.2 849.3,281.6 856.7,282.0 864.0,282.5 871.3,283.0 878.7,283.4 886.0,283.9 893.3,284.4 900.7,284.9 908.0,285.3 915.3,285.7 922.7,286.2 930.0,286.6 937.3,286.9 944.7,287.3 952.0,287.6 959.3,287.9 966.7,288.2 974.0,288.4 981.3,288.7 988.7,288.9 996.0,289.1 1003.3,289.2 1010.7,289.4 1018.0,289.6 1025.3,289.7 1032.7,289.9 1040.0,290.0 1047.3,290.2 1054.7,290.3 1062.0,290.5 1069.3,290.6 1076.7,290.8 1084.0,291.0 1091.3,291.2 1098.7,291.4 1106.0,291.6 1113.3,291.8 1120.7,292.1 1128.0,292.3 1135.3,292.6 1142.7,292.9 1150.0,293.2 1157.3,293.6 1164.7,293.9 1172.0,294.3 1179.3,294.7 1186.7,295.1 1194.0,295.4 1194.0,304.6 1186.7,304.9 1179.3,305.3 1172.0,305.7 1164.7,306.1 1157.3,306.4 1150.0,306.8 1142.7,307.1 1135.3,307.4 1128.0,307.7 1120.7,307.9 1113.3,308.2 1106.0,308.4 1098.7,308.6 1091.3,308.8 1084.0,309.0 1076.7,309.2 1069.3,309.4 1062.0,309.5 1054.7,309.7 1047.3,309.8 1040.0,310.0 1032.7,310.1 1025.3,310.3 1018.0,310.4 1010.7,310.6 1003.3,310.8 996.0,310.9 988.7,311.1 981.3,311.3 974.0,311.6 966.7,311.8 959.3,312.1 952.0,312.4 944.7,312.7 937.3,313.1 930.0,313.4 922.7,313.8 915.3,314.3 908.0,314.7 900.7,315.1 893.3,315.6 886.0,316.1 878.7,316.6 871.3,317.0 864.0,317.5 856.7,318.0 849.3,318.4 842.0,318.8 834.7,319.2 827.3,319.6 820.0,320.0 812.7,320.3 805.3,320.7 798.0,321.0 790.7,321.3 783.3,321.7 776.0,322.0 768.7,322.4 761.3,322.8 754.0,323.2 746.7,323.7 739.3,324.3 732.0,324.9 724.7,325.6 717.3,326.3 710.0,327.1 702.7,328.0 695.3,328.9 688.0,329.9 680.7,331.0 673.3,332.1 666.0,333.3 658.7,334.5 651.3,335.8 644.0,337.2 636.7,338.7 629.3,340.2 622.0,341.8 614.7,343.5 607.3,345.3 600.0,347.2 592.7,349.3 585.3,351.6 578.0,354.0 570.7,356.6 563.3,359.5 556.0,362.6 548.7,365.9 541.3,369.4 534.0,373.2 526.7,377.2 519.3,381.4 512.0,385.7 504.7,390.1 497.3,394.6 490.0,399.2 482.7,403.6 475.3,408.0 468.0,412.3 460.7,416.3 453.3,420.1 446.0,423.6 438.7,426.9 431.3,429.8 424.0,432.5 416.7,434.8 409.3,436.9 402.0,438.7 394.7,440.3 387.3,441.7 380.0,442.9 372.7,443.9 365.3,444.8 358.0,445.6 350.7,446.3 343.3,446.9 336.0,447.4 328.7,447.9 321.3,448.3 314.0,448.7 306.7,449.0 299.3,449.3 292.0,449.6 284.7,449.8 277.3,449.9 270.0,450.0 262.7,450.0 255.3,449.9 248.0,449.8 240.7,449.5 233.3,449.1 226.0,448.6 218.7,447.9 211.3,446.9 204.0,445.7 196.7,444.2 189.3,442.5 182.0,440.3 174.7,437.8 167.3,434.9 160.0,431.6 152.7,427.9 145.3,423.7 138.0,419.1 130.7,414.0 123.3,408.6 116.0,402.7 108.7,396.6 101.3,390.2 94.0,383.6" fill="#2f6f9f" opacity="0.78"/>
<line x1="378.1" y1="132" x2="378.1" y2="468" stroke="#1f2933" stroke-width="2" stroke-dasharray="6 7"/>
<text x="388.1" y="126.0" font-family="Inter, Arial, sans-serif" font-size="12" font-weight="700" text-anchor="start" fill="#1f2933">mean midpoint 3.9 min</text>
<text x="644.0" y="732.0" font-family="Inter, Arial, sans-serif" font-size="12" font-weight="400" text-anchor="middle" fill="#1f2933">Minutes</text>
<line x1="94" y1="510" x2="1194" y2="510" stroke="#d7dee4"/>
<text x="42.0" y="488.0" font-family="Inter, Arial, sans-serif" font-size="12" font-weight="700" text-anchor="start" fill="#1f2933">Band midpoint bubbles</text>
<circle cx="277.3" cy="510.0" r="14.0" fill="#1f2933" opacity="0.55"/>
<circle cx="460.7" cy="510.0" r="10.1" fill="#1f2933" opacity="0.55"/>
<circle cx="350.7" cy="510.0" r="9.6" fill="#1f2933" opacity="0.55"/>
<circle cx="314.0" cy="510.0" r="9.1" fill="#1f2933" opacity="0.55"/>
<circle cx="204.0" cy="510.0" r="9.1" fill="#1f2933" opacity="0.55"/>
<circle cx="314.0" cy="510.0" r="9.1" fill="#1f2933" opacity="0.55"/>
<circle cx="387.3" cy="510.0" r="8.6" fill="#1f2933" opacity="0.55"/>
<circle cx="387.3" cy="510.0" r="8.6" fill="#1f2933" opacity="0.55"/>
<circle cx="497.3" cy="510.0" r="8.6" fill="#1f2933" opacity="0.55"/>
<circle cx="167.3" cy="510.0" r="8.6" fill="#1f2933" opacity="0.55"/>
<circle cx="350.7" cy="510.0" r="8.0" fill="#1f2933" opacity="0.55"/>
<circle cx="497.3" cy="510.0" r="7.2" fill="#1f2933" opacity="0.55"/>
<circle cx="424.0" cy="510.0" r="7.2" fill="#1f2933" opacity="0.55"/>
<circle cx="827.3" cy="510.0" r="7.2" fill="#1f2933" opacity="0.55"/>
<circle cx="460.7" cy="510.0" r="6.3" fill="#1f2933" opacity="0.55"/>
<circle cx="130.7" cy="510.0" r="6.3" fill="#1f2933" opacity="0.55"/>
<circle cx="534.0" cy="510.0" r="6.3" fill="#1f2933" opacity="0.55"/>
<circle cx="644.0" cy="510.0" r="6.3" fill="#1f2933" opacity="0.55"/>
<circle cx="974.0" cy="510.0" r="6.3" fill="#1f2933" opacity="0.55"/>
<circle cx="864.0" cy="510.0" r="6.3" fill="#1f2933" opacity="0.55"/>
<circle cx="277.3" cy="510.0" r="6.3" fill="#1f2933" opacity="0.55"/>
<circle cx="460.7" cy="510.0" r="6.3" fill="#1f2933" opacity="0.55"/>
<circle cx="680.7" cy="510.0" r="6.3" fill="#1f2933" opacity="0.55"/>
<circle cx="240.7" cy="510.0" r="6.3" fill="#1f2933" opacity="0.55"/>
<circle cx="204.0" cy="510.0" r="6.3" fill="#1f2933" opacity="0.55"/>
<circle cx="570.7" cy="510.0" r="6.3" fill="#1f2933" opacity="0.55"/>
<circle cx="534.0" cy="510.0" r="6.3" fill="#1f2933" opacity="0.55"/>
<circle cx="240.7" cy="510.0" r="6.3" fill="#1f2933" opacity="0.55"/>
<circle cx="1010.7" cy="510.0" r="6.3" fill="#1f2933" opacity="0.55"/>
<text x="42.0" y="576.0" font-family="Inter, Arial, sans-serif" font-size="12" font-weight="700" text-anchor="start" fill="#1f2933">Top selected bands</text>
<text x="190.0" y="576.0" font-family="Inter, Arial, sans-serif" font-size="11" font-weight="400" text-anchor="start" fill="#1f2933">0-5 min: 19 (22%)</text>
<text x="190.0" y="600.0" font-family="Inter, Arial, sans-serif" font-size="11" font-weight="400" text-anchor="start" fill="#1f2933">0-10 min: 7 (8%)</text>
<text x="190.0" y="624.0" font-family="Inter, Arial, sans-serif" font-size="11" font-weight="400" text-anchor="start" fill="#1f2933">0-7 min: 6 (7%)</text>
<text x="190.0" y="648.0" font-family="Inter, Arial, sans-serif" font-size="11" font-weight="400" text-anchor="start" fill="#1f2933">1-5 min: 5 (6%)</text>
<text x="475.0" y="576.0" font-family="Inter, Arial, sans-serif" font-size="11" font-weight="400" text-anchor="start" fill="#1f2933">0-3 min: 5 (6%)</text>
<text x="475.0" y="600.0" font-family="Inter, Arial, sans-serif" font-size="11" font-weight="400" text-anchor="start" fill="#1f2933">0-6 min: 5 (6%)</text>
<text x="475.0" y="624.0" font-family="Inter, Arial, sans-serif" font-size="11" font-weight="400" text-anchor="start" fill="#1f2933">3-5 min: 4 (5%)</text>
<text x="475.0" y="648.0" font-family="Inter, Arial, sans-serif" font-size="11" font-weight="400" text-anchor="start" fill="#1f2933">0-8 min: 4 (5%)</text>
</svg>